<svg width="24" height="25" viewBox="0 0 24 25" fill="none" xmlns="http://www.w3.org/2000/svg">
<path fill-rule="evenodd" clip-rule="evenodd" d="M11.9969 0C5.37137 0 0 5.37489 0 12.0053C0 18.6348 5.37137 24.0094 11.9969 24.0094C18.6228 24.0094 23.9941 18.6348 23.9941 12.0053C23.9941 5.37489 18.6228 0 11.9969 0ZM11.9969 2.08781C14.272 2.08781 16.364 2.86668 18.0386 4.1614C16.8346 5.71521 15.1719 6.94449 13.0536 7.84186C12.0377 5.98044 10.8771 4.16517 9.5663 2.40281C10.3454 2.20437 11.1571 2.08781 11.9969 2.08781ZM7.52579 3.16644C8.85735 4.90957 10.0359 6.70609 11.0618 8.54972C8.63221 9.26542 5.73184 9.63316 2.37923 9.65631C3.07158 6.82028 4.98074 4.46143 7.52579 3.16644ZM2.08666 12.0045C2.08666 11.9185 2.09776 11.8347 2.09967 11.7491C5.94698 11.7432 9.26599 11.3007 12.0469 10.4257C12.2797 10.9004 12.5031 11.3784 12.7162 11.8584C9.33858 12.9153 6.55388 15.0811 4.38202 18.3409C2.95032 16.622 2.08666 14.4124 2.08666 12.0045ZM11.9969 21.9216C9.70433 21.9216 7.59612 21.1319 5.91478 19.818C7.88343 16.7278 10.3968 14.7171 13.5108 13.7887C14.4377 16.2098 15.1199 18.7002 15.5535 21.2514C14.4473 21.6782 13.2514 21.9216 11.9969 21.9216ZM17.4976 20.2476C17.0597 17.8943 16.4178 15.5929 15.5786 13.3481C17.4534 13.0833 19.5178 13.1521 21.7757 13.5445C21.3389 16.332 19.7489 18.7391 17.4976 20.2476ZM14.7787 11.3725C14.5353 10.809 14.2821 10.2476 14.0123 9.69194C16.3205 8.69139 18.1761 7.33265 19.5592 5.60855C20.9075 7.20362 21.7546 9.22827 21.8797 11.4456C19.3051 11.024 16.9375 11.0006 14.7787 11.3725Z" fill="white"/>
</svg>
