<svg width="16" height="17" viewBox="0 0 16 17" fill="none" xmlns="http://www.w3.org/2000/svg">
<path opacity="0.5" fill-rule="evenodd" clip-rule="evenodd" d="M8.00001 14.4166C7.4884 14.4166 6.98963 14.3691 6.50473 14.2865L3.00006 16.4723V12.8335C1.17275 11.515 0 9.4931 0 7.22215C0 3.24887 3.58177 0.0277405 8.00001 0.0277405C12.4183 0.0277405 16 3.24887 16 7.22215C16 11.1957 12.4183 14.4166 8.00001 14.4166ZM8.00001 1.05569C4.13402 1.05569 1.00001 3.81658 1.00001 7.22215C1.00001 9.31191 2.18286 11.1554 3.98765 12.2708L3.95611 14.6544L6.30988 13.2002C6.85204 13.319 7.41613 13.3889 8.00001 13.3889C11.866 13.3889 15.0001 10.6281 15.0001 7.22215C15.0001 3.81658 11.866 1.05569 8.00001 1.05569ZM11.5 6.70835H4.50002C4.22388 6.70835 4 6.47815 4 6.19449C4 5.91056 4.22388 5.68055 4.50002 5.68055H11.5C11.7761 5.68055 12 5.91056 12 6.19449C12 6.47815 11.7761 6.70835 11.5 6.70835ZM5.50003 8.7639H10.5C10.7762 8.7639 11.0001 8.99395 11.0001 9.27776C11.0001 9.56172 10.7762 9.79176 10.5 9.79176H5.50003C5.22383 9.79176 5.00002 9.56172 5.00002 9.27776C5.00002 8.99395 5.22383 8.7639 5.50003 8.7639Z" fill="white"/>
</svg>
